<svg width="50" height="50" viewBox="0 0 50 50" fill="none" xmlns="http://www.w3.org/2000/svg">
<g clip-path="url(#clip0_4229_63104)">
<path d="M25 50C38.8073 50 50 38.8073 50 25C50 11.1929 38.8073 0 25 0C11.1929 0 0 11.1929 0 25C0 38.8073 11.1929 50 25 50Z" fill="#595958"/>
<path d="M15.6243 37.5033H22.7613V28.5482H24.437L29.5116 37.5033H37.0625L31.0856 27.1574C33.7111 26.1398 35.5971 24.152 35.5971 20.5835V20.441C35.5971 15.1628 31.9608 12.5034 25.4207 12.5034H15.6243V37.5033ZM22.7613 23.901V17.8901H25.1019C27.4085 17.8901 28.6704 18.6974 28.6704 20.7191V20.8616C28.6704 22.8901 27.4831 23.901 25.068 23.901H22.7613Z" fill="white"/>
</g>
<defs>
<clipPath id="clip0_4229_63104">
<rect width="50" height="50" fill="white"/>
</clipPath>
</defs>
</svg>
